<?xml version="1.0" encoding="UTF-8" standalone="no"?>
<!-- Created with Inkscape (http://www.inkscape.org/) -->

<svg
   width="58.180351mm"
   height="52.610325mm"
   viewBox="0 0 58.180351 52.610325"
   version="1.1"
   id="svg5"
   xml:space="preserve"
   sodipodi:docname="favicon.svg"
   inkscape:version="1.2.2 (732a01da63, 2022-12-09)"
   xmlns:inkscape="http://www.inkscape.org/namespaces/inkscape"
   xmlns:sodipodi="http://sodipodi.sourceforge.net/DTD/sodipodi-0.dtd"
   xmlns="http://www.w3.org/2000/svg"
   xmlns:svg="http://www.w3.org/2000/svg"><sodipodi:namedview
     id="namedview270"
     pagecolor="#505050"
     bordercolor="#eeeeee"
     borderopacity="1"
     inkscape:showpageshadow="0"
     inkscape:pageopacity="0"
     inkscape:pagecheckerboard="0"
     inkscape:deskcolor="#505050"
     inkscape:document-units="mm"
     showgrid="false"
     inkscape:zoom="0.75633418"
     inkscape:cx="70.735928"
     inkscape:cy="175.8482"
     inkscape:window-width="1920"
     inkscape:window-height="1009"
     inkscape:window-x="1912"
     inkscape:window-y="-8"
     inkscape:window-maximized="1"
     inkscape:current-layer="svg5" /><defs
     id="defs2" /><g
     id="layer1"
     transform="translate(-49.888041,-102.11639)"><path
       style="fill:#c7020e;fill-opacity:0.996078;stroke:#010404;stroke-width:0.865;stroke-linecap:butt;stroke-linejoin:miter;stroke-dasharray:none;stroke-opacity:1"
       d="m 81.764456,104.39729 c 0,0 -23.795783,1.61024 -27.910842,21.46988 -4.115059,19.85963 15.386745,24.15361 15.386745,24.15361 0,0 10.287651,1.16295 15.118374,-1.34187 0,0 26.300607,-0.6262 22.990667,-20.84367 -1.47281,-17.35605 -11.800337,-27.04695 -25.584944,-23.43795 z"
       id="path2312" /><path
       style="fill:#c7020e;fill-opacity:0.996078;stroke:#010404;stroke-width:0.465;stroke-linecap:butt;stroke-linejoin:miter;stroke-dasharray:none;stroke-opacity:1"
       d="m 50.454216,143.75873 c 0,0 0.626205,10.8244 8.230121,10.73494 0,0 5.904217,-1.16295 2.41536,-12.88193 z"
       id="path3663" /><path
       style="fill:none;stroke:#000000;stroke-width:1.065;stroke-linecap:round;stroke-linejoin:miter;stroke-dasharray:none;stroke-opacity:1"
       d="m 68.43524,112.18012 c 0,0 -9.571987,2.50482 -14.04488,12.97138"
       id="path3418" /><path
       style="fill:none;stroke:#000000;stroke-width:1.065;stroke-linecap:round;stroke-linejoin:miter;stroke-dasharray:none;stroke-opacity:1"
       d="m 76.978464,108.55708 c 0,0 -28.000301,13.06084 -21.648796,31.13132"
       id="path3418-1" /><path
       style="fill:none;stroke:#000000;stroke-width:1.065;stroke-linecap:round;stroke-linejoin:miter;stroke-dasharray:none;stroke-opacity:1"
       d="m 73.623793,112.62741 c 0,0 -11.182228,6.53042 -10.108734,20.21747 1.073494,13.68705 4.741267,14.49217 13.597591,16.99699"
       id="path3420" /><path
       style="fill:none;stroke:#000000;stroke-width:1.065;stroke-linecap:round;stroke-linejoin:miter;stroke-dasharray:none;stroke-opacity:1"
       d="m 76.307528,112.26958 c 0,0 15.565665,22.18554 9.840362,36.14096"
       id="path3422" /><path
       style="fill:none;stroke:#000000;stroke-width:1.065;stroke-linecap:round;stroke-linejoin:miter;stroke-dasharray:none;stroke-opacity:1"
       d="m 81.853915,112.26958 c 11.547676,0.23908 19.255425,6.02313 20.128015,13.7765 0.87258,7.75338 2.05753,8.05121 -1.61024,17.98103"
       id="path3424" /><path
       style="fill:none;stroke:#000000;stroke-width:1.065;stroke-linecap:round;stroke-linejoin:miter;stroke-dasharray:none;stroke-opacity:1"
       d="m 86.953012,109.58584 c 0,0 8.856324,-4.11506 17.533738,7.78283"
       id="path3426" /><path
       style="fill:#1d7463;fill-opacity:0.992157;stroke:#010404;stroke-width:0.765;stroke-linecap:butt;stroke-linejoin:miter;stroke-dasharray:none;stroke-opacity:1"
       d="m 50.275301,143.66928 c 0.102243,-2.08688 1.073492,-7.24609 3.936144,-7.51447 2.862651,-0.26837 4.830722,0.53676 6.530421,3.04157 l 1.789157,5.18856 c 0,0 -4.741266,-0.98404 -4.830722,-3.30994 0,0 0.536746,4.38343 -0.626204,6.79879 0,0 -3.578316,-3.75723 -2.773194,-5.81475 0,0 -1.162951,5.00963 -2.50482,5.36747 0,0 -1.623025,-1.67035 -1.520782,-3.75723 z"
       id="path3661" /><path
       style="fill:#1d7463;fill-opacity:0.992157;stroke:#010404;stroke-width:0.765;stroke-linecap:butt;stroke-linejoin:miter;stroke-dasharray:none;stroke-opacity:1"
       d="m 71.476806,108.33343 v -3.57831 c 0,0 4.830722,-2.41536 9.840362,0.53675 0,0 3.30994,-3.66778 7.424999,-2.59428 l -0.447289,5.63584 c 0,0 6.440964,-0.0895 6.977711,3.3994 0,0 -6.709336,-0.6262 -10.198193,0.80512 l -1.789157,7.24609 -7.424999,-4.83073 -9.393071,5.90422 3.131024,-6.35151 -7.782833,-1.78915 c 0,0 5.009639,-5.90422 9.661446,-4.38344 z"
       id="path583" /></g></svg>
